<svg width="24" height="24" viewBox="0 0 24 24" fill="none" xmlns="http://www.w3.org/2000/svg">
<path fill-rule="evenodd" clip-rule="evenodd" d="M9.28748 19.9512H10.3542C10.5663 19.9512 10.7698 19.8669 10.9198 19.7169C11.0699 19.5668 11.1542 19.3633 11.1542 19.1512V4.75117C11.1542 4.539 11.0699 4.33552 10.9198 4.18549C10.7698 4.03546 10.5663 3.95117 10.3542 3.95117H9.28748C9.07531 3.95117 8.87183 4.03546 8.7218 4.18549C8.57177 4.33552 8.48748 4.539 8.48748 4.75117V19.1512C8.48748 19.3633 8.57177 19.5668 8.7218 19.7169C8.87183 19.8669 9.07531 19.9512 9.28748 19.9512ZM17.8208 19.9512H16.7542C16.542 19.9512 16.3385 19.8669 16.1885 19.7169C16.0384 19.5668 15.9542 19.3633 15.9542 19.1512V7.41784C15.9542 7.20567 16.0384 7.00218 16.1885 6.85215C16.3385 6.70212 16.542 6.61784 16.7542 6.61784H17.8208C18.033 6.61784 18.2365 6.70212 18.3865 6.85215C18.5365 7.00218 18.6208 7.20567 18.6208 7.41784V19.1512C18.6208 19.3633 18.5365 19.5668 18.3865 19.7169C18.2365 19.8669 18.033 19.9512 17.8208 19.9512ZM13.0208 19.9512H14.0875C14.2997 19.9512 14.5031 19.8669 14.6532 19.7169C14.8032 19.5668 14.8875 19.3633 14.8875 19.1512V11.1512C14.8875 10.939 14.8032 10.7355 14.6532 10.5855C14.5031 10.4355 14.2997 10.3512 14.0875 10.3512H13.0208C12.8086 10.3512 12.6052 10.4355 12.4551 10.5855C12.3051 10.7355 12.2208 10.939 12.2208 11.1512V19.1512C12.2208 19.3633 12.3051 19.5668 12.4551 19.7169C12.6052 19.8669 12.8086 19.9512 13.0208 19.9512ZM5.55415 19.9512H6.62082C6.83299 19.9512 7.03647 19.8669 7.1865 19.7169C7.33653 19.5668 7.42082 19.3633 7.42082 19.1512V14.3512C7.42082 14.139 7.33653 13.9355 7.1865 13.7855C7.03647 13.6355 6.83299 13.5512 6.62082 13.5512H5.55415C5.34198 13.5512 5.13849 13.6355 4.98846 13.7855C4.83844 13.9355 4.75415 14.139 4.75415 14.3512V19.1512C4.75415 19.3633 4.83844 19.5668 4.98846 19.7169C5.13849 19.8669 5.34198 19.9512 5.55415 19.9512Z" fill="#2D81FF"/>
</svg>
