<svg width="25" height="25" viewBox="0 0 25 25" fill="none" xmlns="http://www.w3.org/2000/svg">
<g clip-path="url(#clip0_3139_5942)">
<path d="M23.9583 4.16675H3.81944C3.24414 4.16675 2.77778 4.63311 2.77778 5.20841V5.55564H1.04167C0.466363 5.55564 0 6.022 0 6.5973V18.4029C0 19.7452 1.08819 20.8334 2.43056 20.8334H22.9167C24.0673 20.8334 25 19.9007 25 18.7501V5.20841C25 4.63311 24.5336 4.16675 23.9583 4.16675ZM2.43056 18.7501C2.33847 18.7501 2.25015 18.7135 2.18503 18.6484C2.11992 18.5833 2.08333 18.4949 2.08333 18.4029V7.63897H2.77778V18.4029C2.77778 18.4949 2.7412 18.5833 2.67608 18.6484C2.61096 18.7135 2.52264 18.7501 2.43056 18.7501ZM12.6736 18.0556H6.07639C5.78876 18.0556 5.55556 17.8224 5.55556 17.5348V17.1876C5.55556 16.9 5.78876 16.6667 6.07639 16.6667H12.6736C12.9612 16.6667 13.1944 16.9 13.1944 17.1876V17.5348C13.1944 17.8224 12.9612 18.0556 12.6736 18.0556ZM21.7014 18.0556H15.1042C14.8165 18.0556 14.5833 17.8224 14.5833 17.5348V17.1876C14.5833 16.9 14.8165 16.6667 15.1042 16.6667H21.7014C21.989 16.6667 22.2222 16.9 22.2222 17.1876V17.5348C22.2222 17.8224 21.989 18.0556 21.7014 18.0556ZM12.6736 13.889H6.07639C5.78876 13.889 5.55556 13.6558 5.55556 13.3681V13.0209C5.55556 12.7333 5.78876 12.5001 6.07639 12.5001H12.6736C12.9612 12.5001 13.1944 12.7333 13.1944 13.0209V13.3681C13.1944 13.6558 12.9612 13.889 12.6736 13.889ZM21.7014 13.889H15.1042C14.8165 13.889 14.5833 13.6558 14.5833 13.3681V13.0209C14.5833 12.7333 14.8165 12.5001 15.1042 12.5001H21.7014C21.989 12.5001 22.2222 12.7333 22.2222 13.0209V13.3681C22.2222 13.6558 21.989 13.889 21.7014 13.889ZM21.7014 9.7223H6.07639C5.78876 9.7223 5.55556 9.4891 5.55556 9.20147V7.46536C5.55556 7.17773 5.78876 6.94453 6.07639 6.94453H21.7014C21.989 6.94453 22.2222 7.17773 22.2222 7.46536V9.20147C22.2222 9.4891 21.989 9.7223 21.7014 9.7223Z" fill="#C7C7CA"/>
</g>
<defs>
<clipPath id="clip0_3139_5942">
<rect width="25" height="25" fill="white"/>
</clipPath>
</defs>
</svg>
